<svg width="10" height="10" viewBox="0 0 10 10" fill="none" xmlns="http://www.w3.org/2000/svg">
<path id="replace-this" d="M0.625 5.64942H8.0375L5.76875 8.47998C5.71622 8.54563 5.67665 8.62138 5.65231 8.70291C5.62796 8.78444 5.61932 8.87015 5.62686 8.95515C5.6421 9.12682 5.72236 9.28517 5.85 9.39537C5.97764 9.50556 6.14219 9.55858 6.30745 9.54275C6.47272 9.52692 6.62516 9.44355 6.73125 9.31097L9.85625 5.4157C9.8775 5.38454 9.89625 5.35208 9.9125 5.31832C9.9125 5.28586 9.94375 5.26639 9.95625 5.23392C9.98458 5.15949 9.99941 5.08025 10 5.00021C9.99941 4.92017 9.98458 4.84093 9.95625 4.76649C9.95625 4.73403 9.925 4.71456 9.9125 4.6821C9.89606 4.64826 9.87726 4.61571 9.85625 4.58471L6.73125 0.689449C6.67878 0.623711 6.61434 0.56937 6.54163 0.52954C6.46891 0.489709 6.38934 0.465172 6.30748 0.457332C6.22562 0.449492 6.14308 0.458504 6.06457 0.483852C5.98607 0.509201 5.91315 0.550386 5.85 0.605051C5.78664 0.659501 5.73426 0.726415 5.69587 0.80195C5.65748 0.877486 5.63383 0.960155 5.62628 1.04521C5.61873 1.13027 5.62743 1.21603 5.65188 1.29759C5.67633 1.37914 5.71605 1.45487 5.76875 1.52044L8.0375 4.351H0.625C0.45924 4.351 0.300269 4.4194 0.183058 4.54115C0.0658481 4.6629 0 4.82803 0 5.00021C0 5.17239 0.0658481 5.33752 0.183058 5.45927C0.300269 5.58102 0.45924 5.64942 0.625 5.64942Z" fill="black"/>
</svg>
