<svg width="23" height="26" viewBox="0 0 23 26" fill="none" xmlns="http://www.w3.org/2000/svg">
<g id="bell-icon">
<path d="M21.9695 17.5508V17.5519C22.2086 17.841 22.3599 18.1925 22.4055 18.5649C22.4511 18.9373 22.389 19.3149 22.2266 19.6531C21.8814 20.3758 21.1528 20.8258 20.3195 20.8258H3.08137C2.24327 20.8258 1.50994 20.3758 1.16589 19.6496C1.00401 19.3116 0.942304 18.9343 0.988085 18.5624C1.03387 18.1904 1.18521 17.8394 1.42422 17.5508L1.69803 17.2186C2.92661 15.7365 3.66827 14.84 3.66827 10.6341C3.66827 6.81742 5.19684 4.3329 8.34446 3.03528C8.36141 3.02595 8.3767 3.01389 8.3897 2.99956C8.87541 1.37813 10.2016 0.290039 11.6968 0.290039C13.1933 0.290039 14.5207 1.37813 15.0052 3.00194C15.0184 3.01689 15.0341 3.02938 15.0516 3.03885C16.3992 3.59361 17.4218 4.34361 18.1778 5.33409C19.2052 6.67337 19.7254 8.45909 19.7254 10.6353C19.7254 14.8345 20.4679 15.7334 21.6918 17.2152L21.9695 17.5508Z" fill="#3880EB"/>
<path d="M13.9872 24.6568C13.2951 25.0707 12.5039 25.2895 11.6975 25.29C10.8913 25.2893 10.1003 25.0704 9.40836 24.6565C8.71628 24.2426 8.14915 23.649 7.7671 22.9388C7.74928 22.9047 7.74057 22.8665 7.74181 22.828C7.74306 22.7895 7.75421 22.752 7.77421 22.7191C7.7942 22.6862 7.82235 22.659 7.85593 22.6401C7.88951 22.6213 7.9274 22.6114 7.96591 22.6115H15.4314C15.4699 22.6118 15.5076 22.622 15.5409 22.6412C15.5914 22.6696 15.6289 22.7166 15.6454 22.7722C15.6618 22.8277 15.656 22.8875 15.629 22.9388C15.2469 23.6492 14.6795 24.2429 13.9872 24.6568Z" fill="#3880EB"/>
<path d="M11.6975 25.29C11.6974 25.29 11.6977 25.29 11.6975 25.29Z" fill="#3880EB"/>
</g>
</svg>
