<svg width="150" height="42" viewBox="0 0 150 42" fill="none" xmlns="http://www.w3.org/2000/svg">
<g id="replacethis">
<g id="Union">
<path d="M122.06 18.8499C122.029 18.8725 122.007 19.4545 122.007 20.1346V21.3665H120.42V24.1627H121.992L122.029 27.2008C122.052 29.8081 122.075 30.3144 122.188 30.6999C122.596 32.1131 123.397 33.02 124.622 33.4734C125.219 33.6926 126.722 33.7077 127.675 33.5037C128.022 33.4356 128.34 33.3525 128.37 33.3374C128.4 33.3147 128.43 32.6194 128.43 31.7806C128.43 30.3673 128.423 30.2691 128.302 30.322C128.037 30.4278 126.949 30.458 126.67 30.3673C126.33 30.254 125.899 29.7779 125.793 29.4C125.74 29.2262 125.71 28.153 125.71 26.634V24.1627H128.355V21.3665H125.71V18.797H123.911C122.921 18.797 122.082 18.8196 122.06 18.8499Z" fill="white"/>
<path fill-rule="evenodd" clip-rule="evenodd" d="M85.3533 22.2054L85.0359 21.9484C84.5447 21.563 84.2424 21.3967 83.5773 21.17C83.0332 20.9735 82.8745 20.9584 81.9525 20.9584C80.8113 20.9584 80.3201 21.0566 79.4057 21.4798C77.7204 22.2583 76.5868 23.6942 76.1333 25.6213C75.559 28.0775 76.2089 30.3673 77.932 31.9544C78.7557 32.7177 79.5417 33.1258 80.8038 33.4734C81.2723 33.6019 81.6124 33.6321 82.5571 33.6397C83.993 33.6473 84.7034 33.4885 85.8824 32.9217C86.5776 32.5817 86.7515 32.4532 87.356 31.841C88.1269 31.0626 88.4745 30.4883 88.8071 29.4151L89.0187 28.7349L89.064 16.0763H85.3533V22.2054ZM83.8721 24.4575C84.4616 24.7446 84.915 25.2208 85.2173 25.8782C85.4062 26.2788 85.4591 26.498 85.4894 27.0648C85.5649 28.4855 84.9755 29.5965 83.857 30.1482C83.3884 30.3825 83.3053 30.3976 82.5571 30.3976C81.8543 30.3976 81.7107 30.3749 81.3328 30.1935C80.7887 29.9366 80.1916 29.3471 79.9498 28.8332C79.2394 27.299 79.6928 25.4399 80.97 24.6162C81.5293 24.261 81.9449 24.1552 82.7309 24.193C83.2826 24.2156 83.4715 24.261 83.8721 24.4575Z" fill="white"/>
<path d="M146.017 16.0536C145.986 16.0763 145.964 19.9533 145.964 24.6691V33.2316H149.667V16.0007H147.868C146.878 16.0007 146.039 16.0234 146.017 16.0536Z" fill="white"/>
<path d="M62.001 33.2316V16.7565H73.6394V20.0817H66.0064V23.3314H72.7325V26.2032H66.0064V29.9063H73.8661V33.2316H62.001Z" fill="white"/>
<path fill-rule="evenodd" clip-rule="evenodd" d="M96.6214 21.0642C96.9313 21.0188 97.2336 20.9659 97.294 20.9508C97.6265 20.8677 99.3496 20.9886 99.9013 21.1322C100.68 21.3363 101.753 21.8653 102.305 22.3263C103.846 23.6186 104.632 25.712 104.436 28.0397L104.383 28.6972H95.314L95.3669 28.9012C95.518 29.536 96.1528 30.2691 96.8255 30.6016C97.3016 30.8359 97.3771 30.851 98.1631 30.851C98.9037 30.851 99.0398 30.8283 99.4252 30.647C99.9996 30.3749 100.34 30.1179 100.513 29.793L100.657 29.5285H103.642V30.186C103.642 30.783 103.62 30.8888 103.423 31.2289C102.879 32.1811 101.572 33.0351 100.052 33.4356C99.395 33.6095 99.1456 33.6321 98.0875 33.6397C96.7045 33.6397 95.9715 33.5037 94.9966 33.0502C93.1904 32.2189 92.0794 30.8359 91.5731 28.8105C91.3766 28.017 91.3992 26.2863 91.6109 25.4928C92.2608 23.1349 94.135 21.4723 96.6214 21.0642ZM99.9769 24.5481C99.8257 24.3819 99.4705 24.1325 99.1985 23.9965C98.7753 23.7848 98.6166 23.7471 98.0195 23.7319C97.3016 23.7093 97.0068 23.7697 96.5232 24.072C96.1453 24.3063 95.6918 24.8202 95.4878 25.2434C95.3215 25.5835 95.1024 26.2863 95.1024 26.4828C95.1024 26.5584 95.7221 26.5811 97.9439 26.5811H100.793L100.74 26.1805C100.672 25.6742 100.332 24.9487 99.9769 24.5481Z" fill="white"/>
<path d="M113.618 20.9659C112.711 21.1171 111.85 21.6159 111.109 22.417L110.595 22.9687V21.3665H107.043V33.2316H110.739L110.761 29.5346C110.784 25.8858 110.784 25.8628 110.958 25.4853C111.328 24.6766 112.084 24.1627 112.9 24.1627C113.822 24.1627 114.374 24.4877 114.82 25.2963L115.092 25.7876L115.137 33.2316H118.84L118.795 24.7295L118.591 24.1249C118.031 22.4774 116.83 21.3514 115.296 21.0264C114.82 20.9206 114.041 20.8979 113.618 20.9659Z" fill="white"/>
<path fill-rule="evenodd" clip-rule="evenodd" d="M131.34 23.1651C132.232 22.0769 133.577 21.3211 135.141 21.0264C135.943 20.8753 137.484 20.9282 138.331 21.1398C140.651 21.7141 142.359 23.3843 142.948 25.6742C143.107 26.2788 143.122 26.5055 143.145 29.7703L143.175 33.2316H139.767V31.8561L139.275 32.3096C138.701 32.8537 138.043 33.2316 137.273 33.4734C136.796 33.617 136.547 33.6472 135.686 33.6472C134.499 33.6397 134.015 33.5339 133.04 33.0578C132.194 32.6497 131.181 31.6597 130.751 30.8359C129.413 28.2664 129.647 25.2056 131.34 23.1651ZM139.079 25.6591C138.852 25.2056 138.24 24.6388 137.756 24.4121C137.28 24.1929 136.26 24.1098 135.738 24.2383C135.051 24.4121 134.28 25.0318 133.955 25.6591C133.456 26.6415 133.456 27.9565 133.955 28.939C134.182 29.3924 134.794 29.9592 135.293 30.1935C135.67 30.3749 135.814 30.3976 136.517 30.3976C137.22 30.3976 137.363 30.3749 137.741 30.1935C138.24 29.9592 138.852 29.3924 139.079 28.939C139.578 27.9565 139.578 26.6415 139.079 25.6591Z" fill="white"/>
</g>
<g id="Union_2">
<path d="M42.8435 0.99927C40.342 1.40737 38.7172 2.11021 34.1979 4.73262C32.9811 5.43546 31.6359 6.16853 31.1976 6.35746C29.4972 7.10564 27.759 7.43061 25.8772 7.3626C24.4791 7.3097 23.4664 7.12832 22.0607 6.66732L21.9096 6.61442L22.0607 6.74289C22.5746 7.17366 24.6604 7.95207 25.915 8.17879C26.973 8.37529 28.6961 8.41308 29.7163 8.26193C31.515 7.99742 32.437 7.67245 35.853 6.11563C38.6265 4.85354 39.9264 4.33964 41.1809 4.02223C43.6295 3.39497 45.4886 3.55367 47.4006 4.55125C48.965 5.36745 50.2876 6.50105 50.7259 7.40038C52.1845 10.3856 51.2625 16.9454 48.1564 25.6742C46.456 30.4656 44.1359 35.7406 43.0325 37.3503C42.7755 37.7282 42.05 38.4084 41.5739 38.7409C40.3345 39.5873 38.9666 39.7763 37.969 39.2321C37.7499 39.1112 37.0621 38.4991 36.2535 37.698C34.4926 35.9522 33.9409 35.6273 32.7922 35.6197C32.2859 35.6121 32.1196 35.6424 31.772 35.8162C31.515 35.9447 31.4394 35.9976 31.583 35.9673C31.7115 35.9371 32.0818 35.9144 32.4143 35.9144C32.9434 35.9144 33.0718 35.9447 33.4346 36.1412C34.0316 36.4661 34.7193 37.1992 35.6413 38.4915C36.8127 40.139 37.4476 40.668 38.619 40.9779C39.2462 41.1366 40.3118 41.1215 41.0373 40.9401C42.4506 40.5849 44.083 39.4891 44.9823 38.3026C45.8287 37.1765 46.9245 35.3023 48.1639 32.8537C51.6403 25.984 54.036 18.676 54.5273 13.4161C54.6557 12.0406 54.5802 9.45599 54.3837 8.51888C53.9378 6.39525 53.1216 4.95179 51.7235 3.81062C49.9702 2.38983 48.2093 1.49806 46.3955 1.11263C45.3904 0.901027 43.7655 0.848124 42.8435 0.99927Z" fill="white"/>
<path fill-rule="evenodd" clip-rule="evenodd" d="M18.811 12.2976C17.4507 12.7283 16.0526 14.0131 15.3346 15.4944C13.9441 18.3737 14.4655 22.1222 16.9292 27.0496C17.156 27.4955 17.3373 27.896 17.3373 27.9338C17.3373 28.017 15.9921 28.3495 14.9114 28.5233C13.7551 28.7122 10.2183 28.7122 9.07711 28.5233C7.89816 28.3268 6.55294 27.9792 5.78965 27.6844C4.62581 27.2385 3.31082 26.513 2.77425 26.0294C2.676 25.9462 2.60043 25.916 2.60043 25.9613C2.60043 26.1201 3.8474 27.2914 4.51245 27.7676C7.24067 29.7023 11.5786 30.7905 15.4178 30.5185C16.4531 30.4429 17.9495 30.2313 18.4483 30.0877C18.5843 30.0499 18.6901 30.1633 19.2343 30.9795C21.4335 34.2745 24.0937 37.2445 26.4062 38.9827C27.2451 39.61 28.4618 40.2675 29.074 40.4186C29.9582 40.6302 31.4017 40.3128 32.3237 39.7007C32.8905 39.3228 33.5782 38.5671 33.888 37.9776L34.1374 37.5015L33.7067 37.97C33.2305 38.4915 32.4597 39.0356 31.8853 39.2624C31.3714 39.4664 30.4192 39.6024 29.9809 39.5344C29.2705 39.4362 28.4921 38.9374 27.3962 37.8869C25.6807 36.2318 23.5646 33.3827 21.7962 30.3446L21.1236 29.1959L21.7282 28.8709C23.5646 27.8885 25.0308 26.445 25.8545 24.8051C26.58 23.3692 26.9806 20.8677 26.7916 18.9859C26.5725 16.8093 25.9603 15.4037 24.7058 14.1491C23.6478 13.0987 22.4235 12.5016 20.8137 12.2522C19.8691 12.1162 19.3627 12.1238 18.811 12.2976ZM20.7004 15.5095C22.8845 15.9705 23.8896 17.7767 23.7385 20.981C23.6704 22.2733 23.4891 23.0744 23.0281 23.9662C22.7409 24.5179 22.5293 24.79 21.9474 25.3794C21.3503 25.984 20.1789 26.8833 19.99 26.8833C19.8766 26.8833 18.8639 24.4121 18.4483 23.1349C17.9722 21.6763 17.7908 20.7543 17.7379 19.5527C17.6925 18.3511 17.7983 17.7313 18.1762 16.9529C18.5768 16.1216 19.4005 15.4037 19.9446 15.4037C20.0731 15.3961 20.4056 15.449 20.7004 15.5095Z" fill="white"/>
<path d="M0.476798 25.8329C0.748864 24.9335 1.37613 24.2912 2.24523 24.0191C3.12944 23.7395 4.42932 23.8679 5.42689 24.3441L5.81232 24.533L5.05658 24.4877C3.4922 24.4045 2.27546 24.7068 1.72377 25.3114C1.16452 25.9387 0.983144 26.6642 0.975586 28.3041C0.975586 29.6796 0.945357 29.7098 0.597717 28.6744C0.295421 27.7902 0.250077 26.5886 0.476798 25.8329Z" fill="white"/>
</g>
</g>
</svg>
