<svg width="88" height="18" viewBox="0 0 88 18" fill="none" xmlns="http://www.w3.org/2000/svg">
<g id="edental-logotext">
<path d="M60.2257 3.02565C60.1955 3.04832 60.1728 3.63024 60.1728 4.31041V5.54226H58.5858V8.3385H60.1577L60.1955 11.3766C60.2182 13.9839 60.2408 14.4902 60.3542 14.8756C60.7623 16.2889 61.5634 17.1958 62.7877 17.6492C63.3847 17.8684 64.8886 17.8835 65.8409 17.6794C66.1885 17.6114 66.5059 17.5283 66.5361 17.5132C66.5664 17.4905 66.5966 16.7952 66.5966 15.9564C66.5966 14.5431 66.589 14.4449 66.4681 14.4978C66.2036 14.6036 65.1153 14.6338 64.8357 14.5431C64.4956 14.4298 64.0649 13.9536 63.9591 13.5758C63.9062 13.402 63.8759 12.3288 63.8759 10.8098V8.3385H66.521V5.54226H63.8759V2.97275H62.0773C61.0873 2.97275 60.2484 2.99542 60.2257 3.02565Z" fill="#045E83"/>
<path fill-rule="evenodd" clip-rule="evenodd" d="M23.5195 6.38114L23.2021 6.12419C22.7108 5.73876 22.4085 5.5725 21.7435 5.34578C21.1994 5.14928 21.0406 5.13417 20.1186 5.13417C18.9775 5.13417 18.4862 5.23241 17.5718 5.65563C15.8865 6.43404 14.7529 7.86994 14.2995 9.79708C13.7251 12.2532 14.375 14.5431 16.0981 16.1302C16.9219 16.8935 17.7078 17.3016 18.9699 17.6492C19.4385 17.7777 19.7786 17.8079 20.7232 17.8155C22.1591 17.823 22.8695 17.6643 24.0485 17.0975C24.7438 16.7574 24.9176 16.629 25.5222 16.0168C26.293 15.2384 26.6407 14.664 26.9732 13.5909L27.1848 12.9107L27.2302 0.252092H23.5195V6.38114ZM22.0382 8.63324C22.6277 8.92042 23.0811 9.39654 23.3834 10.054C23.5724 10.4546 23.6253 10.6737 23.6555 11.2405C23.7311 12.6613 23.1416 13.7723 22.0231 14.324C21.5545 14.5582 21.4714 14.5734 20.7232 14.5734C20.0204 14.5734 19.8768 14.5507 19.4989 14.3693C18.9548 14.1124 18.3578 13.5229 18.1159 13.009C17.4055 11.4748 17.859 9.6157 19.1362 8.79195C19.6954 8.43675 20.1111 8.33095 20.8971 8.36873C21.4487 8.3914 21.6377 8.43675 22.0382 8.63324Z" fill="#045E83"/>
<path d="M84.1827 0.229416C84.1524 0.252088 84.1298 4.12903 84.1298 8.84485V17.4074H87.8329V0.176514H86.0342C85.0442 0.176514 84.2053 0.199187 84.1827 0.229416Z" fill="#045E83"/>
<path d="M0.167114 17.4074V0.932254H11.8055V4.25751H4.17253V7.50719H10.8986V10.379H4.17253V14.0821H12.0322V17.4074H0.167114Z" fill="#045E83"/>
<path fill-rule="evenodd" clip-rule="evenodd" d="M34.7875 5.23997C35.0974 5.19462 35.3997 5.14172 35.4602 5.12661C35.7927 5.04348 37.5158 5.1644 38.0675 5.30799C38.8459 5.51204 39.919 6.04105 40.4707 6.50205C42.0124 7.79437 42.7984 9.88777 42.6019 12.2154L42.549 12.8729H33.4801L33.533 13.077C33.6842 13.7118 34.319 14.4449 34.9916 14.7774C35.4677 15.0117 35.5433 15.0268 36.3293 15.0268C37.0699 15.0268 37.2059 15.0041 37.5913 14.8227C38.1657 14.5507 38.5058 14.2937 38.6796 13.9688L38.8232 13.7043H41.8084V14.3617C41.8084 14.9588 41.7857 15.0646 41.5892 15.4047C41.0451 16.3569 39.7376 17.2109 38.2186 17.6114C37.5611 17.7852 37.3117 17.8079 36.2537 17.8155C34.8707 17.8155 34.1376 17.6794 33.1627 17.226C31.3565 16.3947 30.2455 15.0117 29.7392 12.9863C29.5427 12.1928 29.5654 10.4621 29.777 9.6686C30.4269 7.3107 32.3012 5.64807 34.7875 5.23997ZM38.143 8.72393C37.9919 8.55767 37.6367 8.30827 37.3646 8.17224C36.9414 7.96063 36.7827 7.92284 36.1857 7.90773C35.4677 7.88506 35.173 7.94552 34.6893 8.24781C34.3114 8.48209 33.858 8.99599 33.6539 9.41921C33.4877 9.75929 33.2685 10.4621 33.2685 10.6586C33.2685 10.7342 33.8882 10.7569 36.1101 10.7569H38.9592L38.9063 10.3563C38.8383 9.84998 38.4982 9.12447 38.143 8.72393Z" fill="#045E83"/>
<path d="M51.7841 5.14172C50.8772 5.29287 50.0157 5.79166 49.275 6.59274L48.7611 7.14443V5.54226H45.2092V17.4074H48.9047L48.9275 13.7104C48.9501 10.0615 48.9502 10.0386 49.1239 9.66104C49.4942 8.8524 50.25 8.3385 51.0661 8.3385C51.9882 8.3385 52.5398 8.66347 52.9857 9.47211L53.2578 9.96334L53.3031 17.4074H57.0063L56.9609 8.9053L56.7569 8.30071C56.1976 6.6532 54.996 5.52715 53.4618 5.20218C52.9857 5.09638 52.2073 5.07371 51.7841 5.14172Z" fill="#045E83"/>
<path fill-rule="evenodd" clip-rule="evenodd" d="M69.5062 7.34092C70.398 6.25266 71.7432 5.49692 73.3076 5.20218C74.1086 5.05103 75.6504 5.10394 76.4968 5.31554C78.8169 5.8899 80.5249 7.56009 81.1143 9.84998C81.273 10.4546 81.2882 10.6813 81.3108 13.9461L81.3411 17.4074H77.9327V16.0319L77.4415 16.4854C76.8671 17.0295 76.2096 17.4074 75.4387 17.6492C74.9626 17.7928 74.7132 17.823 73.8517 17.823C72.6652 17.8155 72.1815 17.7097 71.2066 17.2336C70.3602 16.8255 69.3475 15.8354 68.9167 15.0117C67.5791 12.4422 67.8133 9.38142 69.5062 7.34092ZM77.245 9.83486C77.0182 9.38142 76.4061 8.81462 75.9224 8.58789C75.4463 8.36873 74.426 8.2856 73.9046 8.41407C73.2169 8.58789 72.446 9.2076 72.121 9.83486C71.6223 10.8173 71.6223 12.1323 72.121 13.1148C72.3478 13.5682 72.9599 14.135 73.4587 14.3693C73.8366 14.5507 73.9802 14.5733 74.683 14.5733C75.3858 14.5733 75.5294 14.5507 75.9073 14.3693C76.4061 14.135 77.0182 13.5682 77.245 13.1148C77.7437 12.1323 77.7437 10.8173 77.245 9.83486Z" fill="#045E83"/>
</g>
</svg>
