<svg width="26" height="26" viewBox="0 0 26 26" fill="none" xmlns="http://www.w3.org/2000/svg">
<g id="edit-icon">
<path d="M21.7778 2.63286C19.3521 0.207123 16.9764 0.144604 14.4881 2.63286L12.9751 4.14583C12.8501 4.27086 12.8001 4.47092 12.8501 4.64598C13.8004 7.95949 16.4512 10.6103 19.7647 11.5606C19.8147 11.5731 19.8647 11.5856 19.9148 11.5856C20.0523 11.5856 20.1773 11.5356 20.2774 11.4356L21.7778 9.92259C23.0157 8.69722 23.6159 7.50935 23.6159 6.30899C23.6284 5.07111 23.0282 3.87074 21.7778 2.63286Z" fill="#292D32"/>
<path d="M24.2535 25.79H1.74662C1.23397 25.79 0.808838 25.3649 0.808838 24.8523C0.808838 24.3396 1.23397 23.9145 1.74662 23.9145H24.2535C24.7661 23.9145 25.1913 24.3396 25.1913 24.8523C25.1913 25.3649 24.7661 25.79 24.2535 25.79Z" fill="#292D32"/>
<path d="M16.4637 12.1484C16.8013 12.3485 17.1514 12.5236 17.514 12.6986C17.5627 12.7197 17.6107 12.7404 17.6583 12.7606C18.0804 12.9408 18.2028 13.4978 17.8783 13.8223L10.7245 20.9761C10.5744 21.1387 10.2618 21.2887 10.0367 21.3262L5.23528 22.0014C5.08524 22.0264 4.93519 22.039 4.78514 22.039C4.10994 22.039 3.48475 21.8014 3.03461 21.3637C2.50945 20.8261 2.27188 20.0258 2.39692 19.1756L3.07212 14.3866C3.10963 14.1741 3.25968 13.8615 3.42223 13.6989L10.585 6.53614C10.9073 6.21384 11.4508 6.33569 11.6353 6.75246C11.6601 6.80861 11.6858 6.86508 11.7123 6.92184C11.8873 7.27195 12.0624 7.60955 12.2624 7.94715C12.425 8.22224 12.6 8.49732 12.7501 8.68488C12.9252 8.95344 13.1222 9.1893 13.2493 9.34152C13.2583 9.3523 13.267 9.36266 13.2752 9.37259C13.2929 9.39534 13.3096 9.41706 13.3252 9.43746C13.387 9.51795 13.4329 9.57771 13.4628 9.59766C13.8754 10.0978 14.3381 10.5479 14.7507 10.8981C14.8507 10.9981 14.9382 11.0731 14.9633 11.0856C15.2008 11.2857 15.4509 11.4857 15.6635 11.6233C15.926 11.8108 16.1886 11.9859 16.4637 12.1484Z" fill="#292D32"/>
</g>
</svg>
