<svg width="19" height="19" viewBox="0 0 19 19" fill="none" xmlns="http://www.w3.org/2000/svg">
<g id="eye-slash">
<g id="Union">
<path fill-rule="evenodd" clip-rule="evenodd" d="M18.7391 0.247454C19.087 0.577393 19.087 1.11233 18.7391 1.44227L1.52039 17.7763C1.17258 18.1062 0.608669 18.1062 0.260858 17.7763C-0.0869526 17.4463 -0.0869526 16.9114 0.260858 16.5814L2.7377 14.2319C1.77928 13.2901 1.11578 12.2427 0.685219 11.3368C0.239844 10.3997 0 9.51955 0 9.01176C0 8.57237 0.177286 7.87464 0.489055 7.12602C0.812586 6.34916 1.31653 5.43104 2.04472 4.54838C3.51288 2.76879 5.90614 1.12639 9.5 1.12639C11.7347 1.12639 13.5188 1.76314 14.9066 2.68829L17.4796 0.247454C17.8274 -0.0824847 18.3913 -0.0824847 18.7391 0.247454ZM6.43103 10.7283L3.99747 13.0368C3.22037 12.2672 2.67011 11.402 2.30906 10.6423C1.90478 9.79171 1.78125 9.1686 1.78125 9.01176C1.78125 8.88791 1.86373 8.42396 2.14571 7.74687C2.41593 7.09803 2.83972 6.32643 3.44747 5.58977C4.65118 4.13072 6.56261 2.81611 9.5 2.81611C11.2096 2.81611 12.5593 3.2597 13.6232 3.90574L11.3093 6.10073C10.7656 5.79667 10.1417 5.63236 9.49981 5.63236C8.55498 5.63236 7.64884 5.98841 6.98074 6.62219C6.31263 7.25596 5.9373 8.11554 5.9373 9.01182C5.9373 9.62069 6.1105 10.2126 6.43103 10.7283ZM7.77929 9.44934L9.96103 7.37971C9.81187 7.34177 9.65691 7.32209 9.49981 7.32209C9.02739 7.32209 8.57432 7.50011 8.24027 7.817C7.90622 8.13389 7.71855 8.56368 7.71855 9.01182C7.71855 9.16085 7.7393 9.30785 7.77929 9.44934Z" fill="#3880EB"/>
<path d="M18.1671 6.38749C17.9509 5.96839 17.4175 5.79492 16.9757 6.00005C16.5339 6.20517 16.351 6.7112 16.5672 7.1303C16.8064 7.59377 16.9734 8.02044 17.0792 8.3645C17.1907 8.72668 17.2188 8.94707 17.2188 9.01186C17.2188 9.13571 17.1363 9.59966 16.8543 10.2767C16.5841 10.9256 16.1603 11.6972 15.5525 12.4339C14.3488 13.8929 12.4374 15.2075 9.5 15.2075L9.49522 15.2075C8.77247 15.2112 8.05242 15.1238 7.35395 14.9475C6.8786 14.8276 6.39075 15.0959 6.26431 15.5468C6.13786 15.9977 6.4207 16.4605 6.89605 16.5805C7.74622 16.795 8.62264 16.9015 9.50235 16.8972C13.0949 16.8965 15.4874 15.2544 16.9553 13.4752C17.6835 12.5926 18.1874 11.6745 18.5109 10.8976C18.8227 10.149 19 9.45125 19 9.01186C19 8.71054 18.9183 8.3108 18.7892 7.8912C18.6546 7.45349 18.4505 6.93672 18.1671 6.38749Z" fill="#3880EB"/>
</g>
</g>
</svg>
