<svg width="19" height="19" viewBox="0 0 19 19" fill="none" xmlns="http://www.w3.org/2000/svg">
<g id="eye-open">
<g id="Union">
<path fill-rule="evenodd" clip-rule="evenodd" d="M9.4998 5.62243C8.55496 5.62243 7.64883 5.97848 6.98073 6.61225C6.31263 7.24602 5.9373 8.10559 5.9373 9.00188C5.9373 9.89816 6.31263 10.7577 6.98073 11.3915C7.64883 12.0253 8.55496 12.3813 9.4998 12.3813C10.4446 12.3813 11.3508 12.0253 12.0189 11.3915C12.687 10.7577 13.0623 9.89816 13.0623 9.00188C13.0623 8.10559 12.687 7.24602 12.0189 6.61225C11.3508 5.97848 10.4446 5.62243 9.4998 5.62243ZM8.24027 7.80706C8.57431 7.49018 9.02738 7.31216 9.4998 7.31216C9.97222 7.31216 10.4253 7.49018 10.7593 7.80706C11.0934 8.12395 11.281 8.55374 11.281 9.00188C11.281 9.45002 11.0934 9.87981 10.7593 10.1967C10.4253 10.5136 9.97222 10.6916 9.4998 10.6916C9.02738 10.6916 8.57431 10.5136 8.24027 10.1967C7.90622 9.87981 7.71855 9.45002 7.71855 9.00188C7.71855 8.55374 7.90622 8.12395 8.24027 7.80706Z" fill="#3880EB"/>
<path fill-rule="evenodd" clip-rule="evenodd" d="M9.5 1.11646C5.90614 1.11646 3.51288 2.75886 2.04472 4.53845C1.31653 5.42111 0.812586 6.33923 0.489055 7.11609C0.177286 7.86471 0 8.56244 0 9.00183C0 9.44122 0.177286 10.139 0.489055 10.8876C0.812586 11.6644 1.31653 12.5826 2.04472 13.4652C3.51288 15.2448 5.90614 16.8872 9.5 16.8872C13.0939 16.8872 15.4871 15.2448 16.9553 13.4652C17.6835 12.5826 18.1874 11.6644 18.5109 10.8876C18.8227 10.139 19 9.44122 19 9.00183C19 8.56244 18.8227 7.86471 18.5109 7.11609C18.1874 6.33923 17.6835 5.42111 16.9553 4.53845C15.4871 2.75886 13.0939 1.11646 9.5 1.11646ZM1.78125 9.00183C1.78125 8.87798 1.86373 8.41403 2.14571 7.73694C2.41593 7.08809 2.83972 6.3165 3.44747 5.57984C4.65118 4.12079 6.56261 2.80618 9.5 2.80618C12.4374 2.80618 14.3488 4.12079 15.5525 5.57984C16.1603 6.3165 16.5841 7.08809 16.8543 7.73694C17.1363 8.41403 17.2188 8.87798 17.2188 9.00183C17.2188 9.12568 17.1363 9.58963 16.8543 10.2667C16.5841 10.9156 16.1603 11.6872 15.5525 12.4238C14.3488 13.8829 12.4374 15.1975 9.5 15.1975C6.56261 15.1975 4.65118 13.8829 3.44747 12.4238C2.83972 11.6872 2.41593 10.9156 2.14571 10.2667C1.86373 9.58963 1.78125 9.12568 1.78125 9.00183Z" fill="#3880EB"/>
</g>
</g>
</svg>
