<svg width="30" height="30" viewBox="0 0 30 30" fill="none" xmlns="http://www.w3.org/2000/svg">
<path fill-rule="evenodd" clip-rule="evenodd" d="M0 30V0H30V30H0ZM1.73775 1.21152L9.08021 12.2252C9.25864 12.1146 9.44582 12.0107 9.63996 11.9136C11.043 11.2121 12.9389 10.7957 15 10.7957C17.0611 10.7957 18.957 11.2121 20.36 11.9136C20.5542 12.0107 20.7415 12.1147 20.92 12.2253L28.2625 1.21152H1.73775ZM1.21152 27.3938L8.1226 17.0271C7.55918 16.4614 7.19712 15.7779 7.19712 15C7.19712 14.2221 7.55918 13.5386 8.12259 12.9729L1.21152 2.60625V27.3938ZM22.8029 15C22.8029 14.2221 22.4409 13.5387 21.8776 12.973L28.7885 2.60663V27.3934L21.8776 17.027C22.4409 16.4613 22.8029 15.7779 22.8029 15ZM15 12.0072C13.0862 12.0072 11.3836 12.3963 10.1818 12.9972C8.94445 13.6159 8.40864 14.3589 8.40864 15C8.40864 15.6411 8.94445 16.3841 10.1818 17.0028C11.3836 17.6037 13.0862 17.9928 15 17.9928C16.9138 17.9928 18.6164 17.6037 19.8182 17.0028C21.0556 16.3841 21.5914 15.6411 21.5914 15C21.5914 14.3589 21.0556 13.6159 19.8182 12.9972C18.6164 12.3963 16.9138 12.0072 15 12.0072ZM20.36 18.0864C20.5542 17.9893 20.7415 17.8853 20.92 17.7747L28.2625 28.7885H1.73775L9.08021 17.7748C9.25864 17.8854 9.44582 17.9893 9.63997 18.0864C11.043 18.7879 12.9389 19.2043 15 19.2043C17.0611 19.2043 18.957 18.7879 20.36 18.0864Z" fill="#045E83"/>
</svg>
