<svg width="30" height="30" viewBox="0 0 30 30" fill="none" xmlns="http://www.w3.org/2000/svg">
<path fill-rule="evenodd" clip-rule="evenodd" d="M0 30V0H30V30H0ZM2.06824 1.21152L9.92745 9.07072C11.2914 7.90283 13.0635 7.19712 15 7.19712C16.9365 7.19712 18.7087 7.90285 20.0726 9.07077L27.9319 1.21152H2.06824ZM1.21152 27.9319L9.07077 20.0726C7.90285 18.7087 7.19712 16.9365 7.19712 15C7.19712 13.0635 7.90285 11.2913 9.07077 9.92739L1.21152 2.06813V27.9319ZM22.8029 15C22.8029 13.0635 22.0972 11.2914 20.9293 9.92745L28.7885 2.06824V27.9318L20.9293 20.0726C22.0972 18.7086 22.8029 16.9365 22.8029 15ZM15 8.40864C11.3597 8.40864 8.40864 11.3597 8.40864 15C8.40864 18.6403 11.3597 21.5914 15 21.5914C18.6403 21.5914 21.5914 18.6403 21.5914 15C21.5914 11.3597 18.6403 8.40864 15 8.40864ZM15 22.8029C16.9365 22.8029 18.7087 22.0972 20.0726 20.9292L27.9319 28.7885H2.06824L9.92745 20.9293C11.2914 22.0972 13.0635 22.8029 15 22.8029Z" fill="#045E83"/>
</svg>
