<svg width="96" height="26" viewBox="0 0 96 26" fill="none" xmlns="http://www.w3.org/2000/svg">
<path d="M27.3279 0.0555606C25.7198 0.317909 24.6753 0.769731 21.77 2.45556C20.9878 2.90738 20.1231 3.37863 19.8413 3.50009C18.7482 3.98106 17.6307 4.18997 16.421 4.14625C15.5222 4.11224 14.8712 3.99564 13.9676 3.69929L13.8704 3.66528L13.9676 3.74787C14.298 4.02479 15.6388 4.52519 16.4453 4.67094C17.1255 4.79726 18.2332 4.82155 18.889 4.72438C20.0453 4.55434 20.638 4.34544 22.834 3.34463C24.617 2.53329 25.4526 2.20293 26.2591 1.99888C27.8332 1.59564 29.0283 1.69767 30.2575 2.33896C31.2631 2.86366 32.1133 3.5924 32.3951 4.17054C33.3328 6.08957 32.74 10.3066 30.7433 15.9179C29.6502 18.9981 28.1587 22.3892 27.4494 23.424C27.2842 23.6669 26.8178 24.1041 26.5117 24.3179C25.715 24.862 24.8356 24.9835 24.1943 24.6337C24.0534 24.556 23.6113 24.1624 23.0915 23.6475C21.9595 22.5252 21.6048 22.3163 20.8664 22.3114C20.5409 22.3066 20.434 22.326 20.2105 22.4377C20.0453 22.5203 19.9967 22.5543 20.089 22.5349C20.1716 22.5155 20.4097 22.5009 20.6235 22.5009C20.9635 22.5009 21.0461 22.5203 21.2793 22.6466C21.6631 22.8556 22.1052 23.3268 22.6979 24.1576C23.451 25.2167 23.8591 25.5568 24.6121 25.756C25.0154 25.858 25.7004 25.8483 26.1668 25.7317C27.0753 25.5033 28.1247 24.7989 28.7028 24.0361C29.2469 23.3122 29.9514 22.1074 30.7481 20.5333C32.983 16.1171 34.523 11.4191 34.8388 8.03774C34.9214 7.15353 34.8728 5.49199 34.7465 4.88957C34.4599 3.52438 33.9352 2.59645 33.0364 1.86285C31.9093 0.949489 30.7773 0.376209 29.6113 0.128435C28.9651 -0.00759557 27.9206 -0.0416036 27.3279 0.0555606Z" fill="#3880EB"/>
<path fill-rule="evenodd" clip-rule="evenodd" d="M11.8785 7.31872C11.004 7.59564 10.1052 8.42155 9.64371 9.37378C8.74978 11.2248 9.085 13.6345 10.6688 16.8021C10.8146 17.0888 10.9312 17.3462 10.9312 17.3705C10.9312 17.424 10.0664 17.6377 9.37164 17.7495C8.62833 17.8709 6.35464 17.8709 5.62104 17.7495C4.86315 17.6232 3.99837 17.3997 3.50768 17.2102C2.7595 16.9236 1.91416 16.4572 1.56922 16.1462C1.50606 16.0928 1.45748 16.0734 1.45748 16.1025C1.45748 16.2045 2.2591 16.9576 2.68663 17.2637C4.44047 18.5074 7.22914 19.207 9.69715 19.0321C10.3627 18.9835 11.3247 18.8475 11.6453 18.7551C11.7328 18.7309 11.8008 18.8037 12.1506 19.3284C13.5644 21.4466 15.2745 23.356 16.7611 24.4734C17.3004 24.8766 18.0826 25.2993 18.4761 25.3964C19.0445 25.5325 19.9724 25.3284 20.5652 24.9349C20.9295 24.692 21.3716 24.2062 21.5708 23.8272L21.7312 23.5211L21.4542 23.8224C21.1482 24.1576 20.6526 24.5074 20.2834 24.6531C19.953 24.7843 19.3409 24.8717 19.0591 24.828C18.6024 24.7649 18.102 24.4442 17.3976 23.7689C16.2947 22.7049 14.9344 20.8734 13.7976 18.9203L13.3652 18.1819L13.7538 17.973C14.9344 17.3414 15.8769 16.4135 16.4065 15.3592C16.8729 14.4361 17.1303 12.828 17.0089 11.6183C16.868 10.2191 16.4745 9.31548 15.668 8.509C14.9878 7.8337 14.2008 7.44989 13.166 7.28957C12.5587 7.20212 12.2332 7.20698 11.8785 7.31872ZM13.0931 9.38349C14.4971 9.67985 15.1433 10.841 15.0461 12.9009C15.0024 13.7317 14.8858 14.2466 14.5895 14.8199C14.4048 15.1746 14.2688 15.3495 13.8947 15.7284C13.5109 16.1171 12.7579 16.6952 12.6364 16.6952C12.5635 16.6952 11.9125 15.1066 11.6453 14.2855C11.3393 13.3479 11.2227 12.7552 11.1886 11.9827C11.1595 11.2102 11.2275 10.8118 11.4704 10.3114C11.7279 9.77702 12.2575 9.31548 12.6073 9.31548C12.6899 9.31062 12.9036 9.34463 13.0931 9.38349Z" fill="#3880EB"/>
<path d="M1.22914 14.8539C0.670434 15.0288 0.267195 15.4418 0.0922967 16.0199C-0.0534522 16.5058 -0.0243024 17.2782 0.170029 17.8466C0.393511 18.5122 0.412944 18.4928 0.412944 17.6086C0.417803 16.5543 0.534402 16.0879 0.893916 15.6847C1.24857 15.296 2.03076 15.1017 3.03642 15.1551L3.52225 15.1843L3.27448 15.0628C2.63319 14.7568 1.79756 14.6742 1.22914 14.8539Z" fill="#3880EB"/>
<path d="M78.2522 11.531C78.2328 11.5456 78.2182 11.9197 78.2182 12.357V13.1489H77.1979V14.9464H78.2085L78.2328 16.8995C78.2473 18.5756 78.2619 18.9011 78.3348 19.1489C78.5971 20.0574 79.1121 20.6403 79.8992 20.9318C80.283 21.0727 81.2498 21.0825 81.8619 20.9513C82.0854 20.9076 82.2894 20.8541 82.3089 20.8444C82.3283 20.8298 82.3477 20.3829 82.3477 19.8436C82.3477 18.9351 82.3429 18.8719 82.2651 18.9059C82.0951 18.974 81.3955 18.9934 81.2158 18.9351C80.9971 18.8622 80.7202 18.5561 80.6522 18.3132C80.6182 18.2015 80.5987 17.5116 80.5987 16.5351V14.9464H82.2992V13.1489H80.5987V11.497H79.4425C78.806 11.497 78.2668 11.5116 78.2522 11.531Z" fill="#3880EB"/>
<path fill-rule="evenodd" clip-rule="evenodd" d="M54.6555 13.6881L54.4514 13.5229C54.1356 13.2752 53.9413 13.1683 53.5138 13.0225C53.164 12.8962 53.0619 12.8865 52.4692 12.8865C51.7356 12.8865 51.4198 12.9497 50.832 13.2217C49.7486 13.7221 49.0198 14.6452 48.7283 15.8841C48.3591 17.463 48.7769 18.9351 49.8846 19.9553C50.4142 20.446 50.9194 20.7084 51.7308 20.9318C52.032 21.0144 52.2506 21.0339 52.8579 21.0387C53.781 21.0436 54.2376 20.9416 54.9955 20.5772C55.4425 20.3586 55.5542 20.276 55.9429 19.8825C56.4384 19.3821 56.6619 19.0128 56.8757 18.3229L57.0117 17.8857L57.0409 9.74805H54.6555V13.6881ZM53.7032 15.1359C54.0822 15.3205 54.3737 15.6266 54.568 16.0493C54.6895 16.3067 54.7235 16.4476 54.7429 16.812C54.7915 17.7254 54.4125 18.4395 53.6935 18.7942C53.3923 18.9448 53.3389 18.9545 52.8579 18.9545C52.4061 18.9545 52.3138 18.9399 52.0708 18.8233C51.721 18.6582 51.3372 18.2792 51.1818 17.9489C50.7251 16.9626 51.0166 15.7675 51.8376 15.2379C52.1972 15.0096 52.4644 14.9416 52.9696 14.9659C53.3243 14.9804 53.4457 15.0096 53.7032 15.1359Z" fill="#3880EB"/>
<path d="M93.619 15.2719C93.619 12.2404 93.6336 9.74805 93.653 9.73347C93.6676 9.71404 94.2068 9.69946 94.8433 9.69946H95.9996V20.7764H93.619V15.2719Z" fill="#3880EB"/>
<path d="M39.6433 20.7764V10.1853H47.1251V12.3229H42.2182V14.412H46.5421V16.2582H42.2182V18.6387H47.2708V20.7764H39.6433Z" fill="#3880EB"/>
<path fill-rule="evenodd" clip-rule="evenodd" d="M62.3316 12.8816C62.2927 12.8914 62.0984 12.9254 61.8992 12.9545C60.3008 13.2169 59.0959 14.2857 58.6781 15.8015C58.5421 16.3116 58.5275 17.4242 58.6538 17.9343C58.9793 19.2363 59.6935 20.1254 60.8546 20.6598C61.4814 20.9513 61.9526 21.0387 62.8417 21.0387C63.5218 21.0339 63.6822 21.0193 64.1048 20.9076C65.0814 20.6501 65.9218 20.1011 66.2716 19.4889C66.398 19.2703 66.4125 19.2023 66.4125 18.8185V18.3958H64.4935L64.4012 18.5659C64.2895 18.7748 64.0708 18.9399 63.7016 19.1148C63.4538 19.2314 63.3664 19.246 62.8903 19.246C62.385 19.246 62.3364 19.2363 62.0303 19.0857C61.598 18.8719 61.1899 18.4007 61.0927 17.9926L61.0587 17.8614H66.8886L66.9227 17.4387C67.049 15.9424 66.5437 14.5966 65.5526 13.7659C65.198 13.4695 64.5081 13.1294 64.0077 12.9982C63.653 12.9059 62.5453 12.8282 62.3316 12.8816ZM63.5559 14.8395C63.7308 14.927 63.9591 15.0873 64.0563 15.1942C64.2846 15.4517 64.5032 15.9181 64.547 16.2436L64.581 16.5011H62.7494C61.321 16.5011 60.9227 16.4865 60.9227 16.4379C60.9227 16.3116 61.0635 15.8598 61.1704 15.6412C61.3016 15.3691 61.5931 15.0387 61.836 14.8881C62.1469 14.6938 62.3364 14.6549 62.798 14.6695C63.1818 14.6792 63.2838 14.7035 63.5559 14.8395Z" fill="#3880EB"/>
<path d="M72.8255 12.8914C72.2425 12.9885 71.6886 13.3092 71.2125 13.8242L70.8822 14.1788V13.1489H68.5988V20.7764H70.9745L70.9891 18.3998C71.0036 16.0541 71.0037 16.0393 71.1154 15.7966C71.3534 15.2768 71.8392 14.9464 72.3639 14.9464C72.9566 14.9464 73.3113 15.1553 73.5979 15.6752L73.7728 15.991L73.802 20.7764H76.1826L76.1534 15.3108L76.0222 14.9221C75.6627 13.863 74.8903 13.1391 73.904 12.9302C73.5979 12.8622 73.0975 12.8476 72.8255 12.8914Z" fill="#3880EB"/>
<path fill-rule="evenodd" clip-rule="evenodd" d="M86.6619 12.9302C85.6562 13.1197 84.7915 13.6055 84.2182 14.3051C83.1299 15.6169 82.9793 17.5845 83.8392 19.2363C84.1161 19.7659 84.7672 20.4023 85.3113 20.6646C85.938 20.9707 86.2489 21.0387 87.0117 21.0436C87.5655 21.0436 87.7259 21.0242 88.0319 20.9318C88.5275 20.7764 88.9502 20.5335 89.3194 20.1837L89.6352 19.8922V20.7764H91.8263L91.8068 18.5513C91.7923 16.4525 91.7825 16.3067 91.6805 15.9181C91.3016 14.446 90.2036 13.3723 88.7121 13.0031C88.168 12.8671 87.1769 12.8331 86.6619 12.9302ZM88.3429 15.1067C88.6538 15.2525 89.0473 15.6169 89.1931 15.9084C89.5137 16.5399 89.5137 17.3853 89.1931 18.0169C89.0473 18.3084 88.6538 18.6727 88.3332 18.8233C88.0902 18.9399 87.9979 18.9545 87.5461 18.9545C87.0943 18.9545 87.002 18.9399 86.7591 18.8233C86.4384 18.6727 86.0449 18.3084 85.8991 18.0169C85.5785 17.3853 85.5785 16.5399 85.8991 15.9084C86.1081 15.5051 86.6036 15.1067 87.0457 14.995C87.3809 14.9124 88.0368 14.9659 88.3429 15.1067Z" fill="#3880EB"/>
</svg>
