<svg width="6" height="26" viewBox="0 0 6 26" fill="none" xmlns="http://www.w3.org/2000/svg">
<g id="more-icon">
<path d="M2.9999 4.95733C3.27353 4.95733 3.54448 4.90343 3.79728 4.79872C4.05008 4.69401 4.27978 4.54053 4.47326 4.34704C4.66675 4.15356 4.82023 3.92386 4.92494 3.67106C5.02965 3.41826 5.08355 3.14731 5.08355 2.87368C5.08355 2.60006 5.02965 2.32911 4.92494 2.07631C4.82023 1.82351 4.66675 1.59381 4.47326 1.40032C4.27978 1.20684 4.05008 1.05336 3.79728 0.948647C3.54448 0.843934 3.27353 0.790039 2.9999 0.790039C2.44729 0.790039 1.9173 1.00957 1.52655 1.40032C1.13579 1.79108 0.91626 2.32107 0.91626 2.87368C0.91626 3.4263 1.13579 3.95628 1.52655 4.34704C1.9173 4.7378 2.44729 4.95733 2.9999 4.95733Z" fill="#0F3948"/>
<path d="M2.9999 15.3738C3.27353 15.3738 3.54448 15.3199 3.79728 15.2152C4.05008 15.1105 4.27978 14.957 4.47326 14.7635C4.66675 14.57 4.82023 14.3403 4.92494 14.0875C5.02965 13.8347 5.08355 13.5638 5.08355 13.2902C5.08355 13.0165 5.02965 12.7456 4.92494 12.4928C4.82023 12.24 4.66675 12.0103 4.47326 11.8168C4.27978 11.6233 4.05008 11.4698 3.79728 11.3651C3.54448 11.2604 3.27353 11.2065 2.9999 11.2065C2.44729 11.2065 1.9173 11.426 1.52655 11.8168C1.13579 12.2076 0.91626 12.7375 0.91626 13.2902C0.91626 13.8428 1.13579 14.3728 1.52655 14.7635C1.9173 15.1543 2.44729 15.3738 2.9999 15.3738Z" fill="#0F3948"/>
<path d="M4.47326 25.1798C4.0825 25.5705 3.55252 25.79 2.9999 25.79C2.44729 25.79 1.9173 25.5705 1.52655 25.1798C1.13579 24.789 0.91626 24.259 0.91626 23.7064C0.91626 23.1538 1.13579 22.6238 1.52655 22.233C1.9173 21.8423 2.44729 21.6227 2.9999 21.6227C3.55252 21.6227 4.0825 21.8423 4.47326 22.233C4.86402 22.6238 5.08355 23.1538 5.08355 23.7064C5.08355 24.259 4.86402 24.789 4.47326 25.1798Z" fill="#0F3948"/>
</g>
</svg>
