<svg width="38" height="39" viewBox="0 0 38 39" fill="none" xmlns="http://www.w3.org/2000/svg">
<path id="person-icon" d="M19.21 0.709991C8.84947 0.709991 0.419983 9.13947 0.419983 19.5C0.419983 29.8605 8.84947 38.29 19.21 38.29C29.5705 38.29 38 29.8605 38 19.5C38 9.13947 29.5705 0.709991 19.21 0.709991ZM14.6734 11.2632C15.8181 10.0491 17.4293 9.3823 19.21 9.3823C20.9907 9.3823 22.5883 10.0549 23.7369 11.2748C24.9009 12.5082 25.4675 14.1694 25.3346 15.9559C25.0648 19.5 22.3205 22.3908 19.21 22.3908C16.0995 22.3908 13.3475 19.5 13.0854 15.954C12.9524 14.154 13.519 12.4889 14.6734 11.2632ZM19.21 35.3992C17.0875 35.4004 14.9865 34.9754 13.0314 34.1494C11.0762 33.3235 9.30683 32.1134 7.82806 30.5909C8.67602 29.3845 9.75524 28.3554 11.0021 27.571C13.3051 26.0948 16.219 25.2815 19.21 25.2815C22.201 25.2815 25.1149 26.0948 27.4159 27.571C28.6647 28.3566 29.7444 29.3832 30.5919 30.5909C29.1134 32.1138 27.3441 33.3241 25.3889 34.1501C23.4337 34.976 21.3325 35.4008 19.21 35.3992Z" fill="#FCFDFF"/>
</svg>
