<svg width="17" height="18" viewBox="0 0 17 18" fill="none" xmlns="http://www.w3.org/2000/svg">
<path id="plus-icon" d="M9.48628 1.27627C9.48628 0.73159 9.04473 0.290039 8.50005 0.290039C7.95537 0.290039 7.51382 0.73159 7.51382 1.27627V7.80386H0.986231C0.441551 7.80386 0 8.24541 0 8.79009C0 9.33477 0.441551 9.77632 0.986231 9.77632H7.51382V16.3038C7.51382 16.8485 7.95537 17.29 8.50005 17.29C9.04473 17.29 9.48628 16.8485 9.48628 16.3038V9.77632H16.0138C16.5584 9.77632 17 9.33477 17 8.79009C17 8.24541 16.5584 7.80386 16.0138 7.80386H9.48628V1.27627Z" fill="white"/>
</svg>
