<svg width="17" height="18" viewBox="0 0 17 18" fill="none" xmlns="http://www.w3.org/2000/svg">
<path id="search-icon" fill-rule="evenodd" clip-rule="evenodd" d="M6.251 0.290039C4.59314 0.290039 3.00317 0.951673 1.83088 2.12939C0.658586 3.30711 0 4.90443 0 6.56998C0 8.23552 0.658586 9.83284 1.83088 11.0106C3.00317 12.1883 4.59313 12.8499 6.251 12.8499C7.66691 12.8499 9.0333 12.3673 10.1323 11.4928L15.7653 17.0799C16.0503 17.3626 16.5095 17.3597 16.7909 17.0733C17.0723 16.787 17.0693 16.3258 16.7843 16.0431L11.157 10.4617C12.0238 9.35892 12.502 7.98922 12.502 6.56998C12.502 4.90443 11.8434 3.30711 10.6711 2.12939C9.49884 0.951673 7.90887 0.290039 6.251 0.290039ZM9.82629 9.7885C10.6133 8.90624 11.0517 7.76081 11.0517 6.56998C11.0517 5.29087 10.5459 4.06415 9.64558 3.15969C8.74528 2.25522 7.52422 1.7471 6.251 1.7471C4.97779 1.7471 3.75673 2.25522 2.85643 3.15969C1.95613 4.06415 1.45035 5.29087 1.45035 6.56998C1.45035 7.84908 1.95613 9.0758 2.85643 9.98026C3.75673 10.8847 4.97779 11.3929 6.251 11.3929C7.43635 11.3929 8.57651 10.9524 9.4547 10.1618C9.48931 10.0828 9.53857 10.0087 9.60253 9.94361C9.66879 9.87618 9.74491 9.82447 9.82629 9.7885Z" fill="#045E83"/>
</svg>
