<svg width="38" height="38" viewBox="0 0 38 38" fill="none" xmlns="http://www.w3.org/2000/svg">
<path id="user-icon" d="M19.2102 0C8.84965 0 0.420166 8.42948 0.420166 18.79C0.420166 29.1505 8.84965 37.58 19.2102 37.58C29.5707 37.58 38.0002 29.1505 38.0002 18.79C38.0002 8.42948 29.5707 0 19.2102 0ZM14.6736 10.5532C15.8183 9.33911 17.4295 8.67231 19.2102 8.67231C20.9909 8.67231 22.5885 9.34489 23.7371 10.5648C24.9011 11.7982 25.4677 13.4594 25.3347 15.2459C25.0649 18.79 22.3206 21.6808 19.2102 21.6808C16.0997 21.6808 13.3477 18.79 13.0856 15.244C12.9526 13.444 13.5192 11.7789 14.6736 10.5532ZM19.2102 34.6892C17.0877 34.6904 14.9867 34.2654 13.0315 33.4395C11.0764 32.6135 9.30701 31.4034 7.82824 29.8809C8.6762 28.6745 9.75542 27.6454 11.0023 26.861C13.3053 25.3848 16.2192 24.5715 19.2102 24.5715C22.2011 24.5715 25.115 25.3848 27.4161 26.861C28.6649 27.6466 29.7446 28.6732 30.5921 29.8809C29.1136 31.4038 27.3442 32.6141 25.3891 33.4401C23.4339 34.266 21.3327 34.6908 19.2102 34.6892Z" fill="#045E83"/>
</svg>
